<mxfile host="Electron" modified="2024-02-10T21:37:45.807Z" agent="Mozilla/5.0 (Windows NT 10.0; Win64; x64) AppleWebKit/537.36 (KHTML, like Gecko) draw.io/23.0.2 Chrome/120.0.6099.109 Electron/28.1.0 Safari/537.36" etag="Lljh-Tp2r6wkEfrd436K" version="23.0.2" type="device">
  <diagram name="Страница — 1" id="lwFxoNZVOsWcV77fsAZV">
    <mxGraphModel dx="394" dy="823" grid="1" gridSize="10" guides="1" tooltips="1" connect="1" arrows="1" fold="1" page="1" pageScale="1" pageWidth="827" pageHeight="1169" math="0" shadow="0">
      <root>
        <mxCell id="0" />
        <mxCell id="1" parent="0" />
        <mxCell id="IgeLQids6hlCfI4V9-Eq-91" value="" style="rounded=1;whiteSpace=wrap;html=1;fillColor=#f5f5f5;strokeColor=#666666;fontColor=#333333;" parent="1" vertex="1">
          <mxGeometry x="840" y="50" width="410" height="690" as="geometry" />
        </mxCell>
        <mxCell id="IgeLQids6hlCfI4V9-Eq-26" value="" style="rounded=1;whiteSpace=wrap;html=1;" parent="1" vertex="1">
          <mxGeometry x="880" y="90" width="330" height="170" as="geometry" />
        </mxCell>
        <mxCell id="IgeLQids6hlCfI4V9-Eq-27" value="&lt;b&gt;Форма ввода нового пароля&lt;/b&gt;" style="text;html=1;strokeColor=none;fillColor=none;align=center;verticalAlign=middle;whiteSpace=wrap;rounded=0;" parent="1" vertex="1">
          <mxGeometry x="950" y="90" width="190" height="30" as="geometry" />
        </mxCell>
        <mxCell id="IgeLQids6hlCfI4V9-Eq-28" value="Новый пароль" style="text;html=1;strokeColor=none;fillColor=none;align=center;verticalAlign=middle;whiteSpace=wrap;rounded=0;" parent="1" vertex="1">
          <mxGeometry x="900" y="120" width="90" height="30" as="geometry" />
        </mxCell>
        <mxCell id="IgeLQids6hlCfI4V9-Eq-29" value="&lt;font color=&quot;#999999&quot;&gt;Password&lt;/font&gt;" style="rounded=0;whiteSpace=wrap;html=1;" parent="1" vertex="1">
          <mxGeometry x="900" y="150" width="290" height="30" as="geometry" />
        </mxCell>
        <mxCell id="IgeLQids6hlCfI4V9-Eq-30" value="Изменить пароль" style="rounded=0;whiteSpace=wrap;html=1;fillColor=#dae8fc;strokeColor=#6c8ebf;" parent="1" vertex="1">
          <mxGeometry x="900" y="190" width="150" height="30" as="geometry" />
        </mxCell>
        <mxCell id="IgeLQids6hlCfI4V9-Eq-31" value="&lt;font color=&quot;#ff0000&quot;&gt;Сообщение об ошибке&lt;/font&gt;" style="text;html=1;strokeColor=none;fillColor=none;align=center;verticalAlign=middle;whiteSpace=wrap;rounded=0;" parent="1" vertex="1">
          <mxGeometry x="900" y="230" width="130" height="30" as="geometry" />
        </mxCell>
        <mxCell id="IgeLQids6hlCfI4V9-Eq-102" value="" style="ellipse;whiteSpace=wrap;html=1;" parent="1" vertex="1">
          <mxGeometry x="1035" y="40" width="20" height="20" as="geometry" />
        </mxCell>
        <mxCell id="IgeLQids6hlCfI4V9-Eq-103" value="" style="endArrow=classic;html=1;rounded=1;exitX=0.5;exitY=1;exitDx=0;exitDy=0;entryX=0.5;entryY=0;entryDx=0;entryDy=0;curved=0;" parent="1" source="IgeLQids6hlCfI4V9-Eq-102" target="IgeLQids6hlCfI4V9-Eq-26" edge="1">
          <mxGeometry width="50" height="50" relative="1" as="geometry">
            <mxPoint x="260" y="145" as="sourcePoint" />
            <mxPoint x="280" y="145" as="targetPoint" />
          </mxGeometry>
        </mxCell>
        <mxCell id="tyScDCUlxxq5SsNX2Qp5-1" value="Валидация данных (на клиенте)" style="rounded=1;whiteSpace=wrap;html=1;fillColor=#fff2cc;strokeColor=#d6b656;" parent="1" vertex="1">
          <mxGeometry x="902" y="310" width="120" height="60" as="geometry" />
        </mxCell>
        <mxCell id="tyScDCUlxxq5SsNX2Qp5-2" value="" style="rhombus;whiteSpace=wrap;html=1;" parent="1" vertex="1">
          <mxGeometry x="1108" y="335" width="40" height="10" as="geometry" />
        </mxCell>
        <mxCell id="tyScDCUlxxq5SsNX2Qp5-3" value="" style="endArrow=classic;html=1;rounded=1;exitX=0.25;exitY=1;exitDx=0;exitDy=0;entryX=0.5;entryY=0;entryDx=0;entryDy=0;curved=0;" parent="1" source="IgeLQids6hlCfI4V9-Eq-26" target="tyScDCUlxxq5SsNX2Qp5-1" edge="1">
          <mxGeometry width="50" height="50" relative="1" as="geometry">
            <mxPoint x="1070" y="400" as="sourcePoint" />
            <mxPoint x="1120" y="350" as="targetPoint" />
          </mxGeometry>
        </mxCell>
        <mxCell id="tyScDCUlxxq5SsNX2Qp5-7" value="Нажали кнопку &quot;Изменить пароль&quot;" style="edgeLabel;html=1;align=center;verticalAlign=middle;resizable=0;points=[];" parent="tyScDCUlxxq5SsNX2Qp5-3" vertex="1" connectable="0">
          <mxGeometry x="-0.2429" y="2" relative="1" as="geometry">
            <mxPoint as="offset" />
          </mxGeometry>
        </mxCell>
        <mxCell id="tyScDCUlxxq5SsNX2Qp5-4" value="" style="endArrow=classic;html=1;rounded=1;exitX=0.5;exitY=0;exitDx=0;exitDy=0;entryX=0.75;entryY=1;entryDx=0;entryDy=0;curved=0;" parent="1" source="tyScDCUlxxq5SsNX2Qp5-2" target="IgeLQids6hlCfI4V9-Eq-26" edge="1">
          <mxGeometry width="50" height="50" relative="1" as="geometry">
            <mxPoint x="973" y="270" as="sourcePoint" />
            <mxPoint x="972" y="320" as="targetPoint" />
          </mxGeometry>
        </mxCell>
        <mxCell id="tyScDCUlxxq5SsNX2Qp5-5" value="" style="endArrow=classic;html=1;rounded=1;exitX=1;exitY=0.5;exitDx=0;exitDy=0;entryX=0;entryY=0.5;entryDx=0;entryDy=0;curved=0;" parent="1" source="tyScDCUlxxq5SsNX2Qp5-1" target="tyScDCUlxxq5SsNX2Qp5-2" edge="1">
          <mxGeometry width="50" height="50" relative="1" as="geometry">
            <mxPoint x="1138" y="345" as="sourcePoint" />
            <mxPoint x="1138" y="270" as="targetPoint" />
          </mxGeometry>
        </mxCell>
        <mxCell id="tyScDCUlxxq5SsNX2Qp5-6" value="[ошибка]" style="edgeLabel;html=1;align=center;verticalAlign=middle;resizable=0;points=[];" parent="tyScDCUlxxq5SsNX2Qp5-5" vertex="1" connectable="0">
          <mxGeometry x="0.0886" y="2" relative="1" as="geometry">
            <mxPoint y="-8" as="offset" />
          </mxGeometry>
        </mxCell>
        <mxCell id="tyScDCUlxxq5SsNX2Qp5-15" value="Валидация данных (на сервере)" style="rounded=1;whiteSpace=wrap;html=1;fillColor=#fff2cc;strokeColor=#d6b656;" parent="1" vertex="1">
          <mxGeometry x="902" y="420" width="120" height="60" as="geometry" />
        </mxCell>
        <mxCell id="tyScDCUlxxq5SsNX2Qp5-16" value="" style="rhombus;whiteSpace=wrap;html=1;" parent="1" vertex="1">
          <mxGeometry x="1108" y="445" width="40" height="10" as="geometry" />
        </mxCell>
        <mxCell id="tyScDCUlxxq5SsNX2Qp5-17" value="" style="endArrow=classic;html=1;rounded=1;exitX=0.5;exitY=1;exitDx=0;exitDy=0;entryX=0.5;entryY=0;entryDx=0;entryDy=0;curved=0;" parent="1" source="tyScDCUlxxq5SsNX2Qp5-1" target="tyScDCUlxxq5SsNX2Qp5-15" edge="1">
          <mxGeometry width="50" height="50" relative="1" as="geometry">
            <mxPoint x="963" y="370" as="sourcePoint" />
            <mxPoint x="1120" y="460" as="targetPoint" />
          </mxGeometry>
        </mxCell>
        <mxCell id="tyScDCUlxxq5SsNX2Qp5-18" value="[ok]" style="edgeLabel;html=1;align=center;verticalAlign=middle;resizable=0;points=[];" parent="tyScDCUlxxq5SsNX2Qp5-17" vertex="1" connectable="0">
          <mxGeometry x="-0.2429" y="2" relative="1" as="geometry">
            <mxPoint x="11" as="offset" />
          </mxGeometry>
        </mxCell>
        <mxCell id="tyScDCUlxxq5SsNX2Qp5-19" value="" style="endArrow=classic;html=1;rounded=1;exitX=0.5;exitY=0;exitDx=0;exitDy=0;entryX=0.5;entryY=1;entryDx=0;entryDy=0;curved=0;" parent="1" source="tyScDCUlxxq5SsNX2Qp5-16" target="tyScDCUlxxq5SsNX2Qp5-2" edge="1">
          <mxGeometry width="50" height="50" relative="1" as="geometry">
            <mxPoint x="973" y="380" as="sourcePoint" />
            <mxPoint x="1128" y="370" as="targetPoint" />
          </mxGeometry>
        </mxCell>
        <mxCell id="tyScDCUlxxq5SsNX2Qp5-20" value="" style="endArrow=classic;html=1;rounded=1;exitX=1;exitY=0.5;exitDx=0;exitDy=0;entryX=0;entryY=0.5;entryDx=0;entryDy=0;curved=0;" parent="1" source="tyScDCUlxxq5SsNX2Qp5-15" target="tyScDCUlxxq5SsNX2Qp5-16" edge="1">
          <mxGeometry width="50" height="50" relative="1" as="geometry">
            <mxPoint x="1138" y="455" as="sourcePoint" />
            <mxPoint x="1138" y="380" as="targetPoint" />
          </mxGeometry>
        </mxCell>
        <mxCell id="tyScDCUlxxq5SsNX2Qp5-21" value="[ошибка]" style="edgeLabel;html=1;align=center;verticalAlign=middle;resizable=0;points=[];" parent="tyScDCUlxxq5SsNX2Qp5-20" vertex="1" connectable="0">
          <mxGeometry x="0.0886" y="2" relative="1" as="geometry">
            <mxPoint y="-8" as="offset" />
          </mxGeometry>
        </mxCell>
        <mxCell id="tyScDCUlxxq5SsNX2Qp5-34" value="Изменение пароля по UUID" style="rounded=1;whiteSpace=wrap;html=1;fillColor=#fff2cc;strokeColor=#d6b656;" parent="1" vertex="1">
          <mxGeometry x="902" y="530" width="120" height="60" as="geometry" />
        </mxCell>
        <mxCell id="tyScDCUlxxq5SsNX2Qp5-36" value="" style="endArrow=classic;html=1;rounded=1;entryX=0.5;entryY=0;entryDx=0;entryDy=0;curved=0;exitX=0.5;exitY=1;exitDx=0;exitDy=0;" parent="1" source="tyScDCUlxxq5SsNX2Qp5-15" target="tyScDCUlxxq5SsNX2Qp5-34" edge="1">
          <mxGeometry width="50" height="50" relative="1" as="geometry">
            <mxPoint x="962" y="480" as="sourcePoint" />
            <mxPoint x="1120" y="570" as="targetPoint" />
          </mxGeometry>
        </mxCell>
        <mxCell id="tyScDCUlxxq5SsNX2Qp5-37" value="[ok]" style="edgeLabel;html=1;align=center;verticalAlign=middle;resizable=0;points=[];" parent="tyScDCUlxxq5SsNX2Qp5-36" vertex="1" connectable="0">
          <mxGeometry x="-0.2429" y="2" relative="1" as="geometry">
            <mxPoint x="11" as="offset" />
          </mxGeometry>
        </mxCell>
        <mxCell id="tyScDCUlxxq5SsNX2Qp5-39" value="" style="endArrow=classic;html=1;rounded=1;exitX=1;exitY=0.5;exitDx=0;exitDy=0;entryX=0.5;entryY=1;entryDx=0;entryDy=0;curved=0;" parent="1" source="tyScDCUlxxq5SsNX2Qp5-34" target="tyScDCUlxxq5SsNX2Qp5-16" edge="1">
          <mxGeometry width="50" height="50" relative="1" as="geometry">
            <mxPoint x="1138" y="565" as="sourcePoint" />
            <mxPoint x="1108" y="560" as="targetPoint" />
            <Array as="points">
              <mxPoint x="1130" y="560" />
            </Array>
          </mxGeometry>
        </mxCell>
        <mxCell id="tyScDCUlxxq5SsNX2Qp5-40" value="[ошибка]" style="edgeLabel;html=1;align=center;verticalAlign=middle;resizable=0;points=[];" parent="tyScDCUlxxq5SsNX2Qp5-39" vertex="1" connectable="0">
          <mxGeometry x="0.0886" y="2" relative="1" as="geometry">
            <mxPoint x="-58" y="-2" as="offset" />
          </mxGeometry>
        </mxCell>
        <mxCell id="tyScDCUlxxq5SsNX2Qp5-48" value="Удаление UUID из базы данных" style="rounded=1;whiteSpace=wrap;html=1;fillColor=#fff2cc;strokeColor=#d6b656;" parent="1" vertex="1">
          <mxGeometry x="902" y="640" width="120" height="60" as="geometry" />
        </mxCell>
        <mxCell id="tyScDCUlxxq5SsNX2Qp5-50" value="" style="endArrow=classic;html=1;rounded=1;entryX=0.5;entryY=0;entryDx=0;entryDy=0;curved=0;exitX=0.5;exitY=1;exitDx=0;exitDy=0;" parent="1" source="tyScDCUlxxq5SsNX2Qp5-34" target="tyScDCUlxxq5SsNX2Qp5-48" edge="1">
          <mxGeometry width="50" height="50" relative="1" as="geometry">
            <mxPoint x="962" y="590" as="sourcePoint" />
            <mxPoint x="1120" y="680" as="targetPoint" />
          </mxGeometry>
        </mxCell>
        <mxCell id="tyScDCUlxxq5SsNX2Qp5-51" value="[ok]" style="edgeLabel;html=1;align=center;verticalAlign=middle;resizable=0;points=[];" parent="tyScDCUlxxq5SsNX2Qp5-50" vertex="1" connectable="0">
          <mxGeometry x="-0.2429" y="2" relative="1" as="geometry">
            <mxPoint x="11" as="offset" />
          </mxGeometry>
        </mxCell>
        <mxCell id="tyScDCUlxxq5SsNX2Qp5-55" value="" style="shape=sumEllipse;perimeter=ellipsePerimeter;html=1;backgroundOutline=1;" parent="1" vertex="1">
          <mxGeometry x="952" y="730" width="20" height="20" as="geometry" />
        </mxCell>
        <mxCell id="tyScDCUlxxq5SsNX2Qp5-56" value="" style="endArrow=classic;html=1;rounded=1;entryX=0.5;entryY=0;entryDx=0;entryDy=0;curved=0;exitX=0.5;exitY=1;exitDx=0;exitDy=0;" parent="1" source="tyScDCUlxxq5SsNX2Qp5-48" target="tyScDCUlxxq5SsNX2Qp5-55" edge="1">
          <mxGeometry width="50" height="50" relative="1" as="geometry">
            <mxPoint x="972" y="600" as="sourcePoint" />
            <mxPoint x="972" y="650" as="targetPoint" />
          </mxGeometry>
        </mxCell>
      </root>
    </mxGraphModel>
  </diagram>
</mxfile>
